<svg xmlns="http://www.w3.org/2000/svg" viewBox="0 0 32 32" width="32" height="32">
  <path d="M 2 2 L 16 2" fill="none" stroke="#808080" stroke-width="1" stroke-linecap="round" stroke-linejoin="round"/>
  <path d="M 16 2 L 16 9" fill="none" stroke="#808080" stroke-width="1" stroke-linecap="round" stroke-linejoin="round"/>
  <path d="M 2 9 L 2 2" fill="none" stroke="#808080" stroke-width="1" stroke-linecap="round" stroke-linejoin="round"/>
  <path d="M 2 9 L 23 9" fill="none" stroke="#808080" stroke-width="1" stroke-linecap="round" stroke-linejoin="round"/>
  <path d="M 9 9 L 9 16" fill="none" stroke="#808080" stroke-width="1" stroke-linecap="round" stroke-linejoin="round"/>
  <path d="M 9 16 L 23 16" fill="none" stroke="#808080" stroke-width="1" stroke-linecap="round" stroke-linejoin="round"/>
  <path d="M 23 16 L 23 9" fill="none" stroke="#808080" stroke-width="1" stroke-linecap="round" stroke-linejoin="round"/>
  <path d="M 30 16 L 23 16" fill="none" stroke="#808080" stroke-width="1" stroke-linecap="round" stroke-linejoin="round"/>
  <path d="M 30 23 L 30 16" fill="none" stroke="#808080" stroke-width="1" stroke-linecap="round" stroke-linejoin="round"/>
  <path d="M 16 23 L 16 16" fill="none" stroke="#808080" stroke-width="1" stroke-linecap="round" stroke-linejoin="round"/>
  <path d="M 16 23 L 30 23" fill="none" stroke="#808080" stroke-width="1" stroke-linecap="round" stroke-linejoin="round"/>
  <path d="M 2 23 L 17 23" fill="none" stroke="#808080" stroke-width="1" stroke-linecap="round" stroke-linejoin="round"/>
  <path d="M 16 30 L 16 23" fill="none" stroke="#808080" stroke-width="1" stroke-linecap="round" stroke-linejoin="round"/>
  <path d="M 2 30 L 16 30" fill="none" stroke="#808080" stroke-width="1" stroke-linecap="round" stroke-linejoin="round"/>
  <path d="M 2 23 L 2 30" fill="none" stroke="#808080" stroke-width="1" stroke-linecap="round" stroke-linejoin="round"/>
  <path d="M 2 24 L 16 24" fill="none" stroke="#808080" stroke-width="1" stroke-linecap="round" stroke-linejoin="round"/>
  <path d="M 2 25 L 16 25" fill="none" stroke="#808080" stroke-width="1" stroke-linecap="round" stroke-linejoin="round"/>
  <path d="M 2 26 L 16 26" fill="none" stroke="#808080" stroke-width="1" stroke-linecap="round" stroke-linejoin="round"/>
  <path d="M 2 27 L 16 27" fill="none" stroke="#808080" stroke-width="1" stroke-linecap="round" stroke-linejoin="round"/>
  <path d="M 2 28 L 16 28" fill="none" stroke="#808080" stroke-width="1" stroke-linecap="round" stroke-linejoin="round"/>
  <path d="M 2 29 L 16 29" fill="none" stroke="#808080" stroke-width="1" stroke-linecap="round" stroke-linejoin="round"/>
  <path d="M 5 21 L 5 12" fill="none" stroke="#808080" stroke-width="1" stroke-linecap="round" stroke-linejoin="round"/>
  <path d="M 3 17 L 7 17" fill="none" stroke="#808080" stroke-width="1" stroke-linecap="round" stroke-linejoin="round"/>
  <path d="M 3 17 L 5 21" fill="none" stroke="#808080" stroke-width="1" stroke-linecap="round" stroke-linejoin="round"/>
  <path d="M 7 17 L 5 21" fill="none" stroke="#808080" stroke-width="1" stroke-linecap="round" stroke-linejoin="round"/>
  <path d="M 6 17 L 5 20" fill="none" stroke="#808080" stroke-width="1" stroke-linecap="round" stroke-linejoin="round"/>
  <path d="M 4 17 L 4 19" fill="none" stroke="#808080" stroke-width="1" stroke-linecap="round" stroke-linejoin="round"/>
</svg>