<svg xmlns="http://www.w3.org/2000/svg" viewBox="0 0 32 32" width="32" height="32">
  <path d="M 2 2 L 16 2" fill="none" stroke="#808080" stroke-width="1" stroke-linecap="round" stroke-linejoin="round"/>
  <path d="M 16 2 L 16 9" fill="none" stroke="#808080" stroke-width="1" stroke-linecap="round" stroke-linejoin="round"/>
  <path d="M 16 9 L 2 9" fill="none" stroke="#808080" stroke-width="1" stroke-linecap="round" stroke-linejoin="round"/>
  <path d="M 2 9 L 2 3" fill="none" stroke="#808080" stroke-width="1" stroke-linecap="round" stroke-linejoin="round"/>
  <path d="M 9 16 L 9 9" fill="none" stroke="#808080" stroke-width="1" stroke-linecap="round" stroke-linejoin="round"/>
  <path d="M 23 9 L 16 9" fill="none" stroke="#808080" stroke-width="1" stroke-linecap="round" stroke-linejoin="round"/>
  <path d="M 23 9 L 23 16" fill="none" stroke="#808080" stroke-width="1" stroke-linecap="round" stroke-linejoin="round"/>
  <path d="M 23 16 L 9 16" fill="none" stroke="#808080" stroke-width="1" stroke-linecap="round" stroke-linejoin="round"/>
  <path d="M 30 23 L 16 23" fill="none" stroke="#808080" stroke-width="1" stroke-linecap="round" stroke-linejoin="round"/>
  <path d="M 16 23 L 16 16" fill="none" stroke="#808080" stroke-width="1" stroke-linecap="round" stroke-linejoin="round"/>
  <path d="M 23 16 L 30 16" fill="none" stroke="#808080" stroke-width="1" stroke-linecap="round" stroke-linejoin="round"/>
  <path d="M 30 16 L 30 23" fill="none" stroke="#808080" stroke-width="1" stroke-linecap="round" stroke-linejoin="round"/>
  <path d="M 9 23 L 17 23" fill="none" stroke="#808080" stroke-width="1" stroke-linecap="round" stroke-linejoin="round"/>
  <path d="M 9 23 L 9 30" fill="none" stroke="#808080" stroke-width="1" stroke-linecap="round" stroke-linejoin="round"/>
  <path d="M 9 30 L 23 30" fill="none" stroke="#808080" stroke-width="1" stroke-linecap="round" stroke-linejoin="round"/>
  <path d="M 23 30 L 23 23" fill="none" stroke="#808080" stroke-width="1" stroke-linecap="round" stroke-linejoin="round"/>
  <path d="M 16 17 L 30 17" fill="none" stroke="#808080" stroke-width="1" stroke-linecap="round" stroke-linejoin="round"/>
  <path d="M 16 18 L 30 18" fill="none" stroke="#808080" stroke-width="1" stroke-linecap="round" stroke-linejoin="round"/>
  <path d="M 16 19 L 30 19" fill="none" stroke="#808080" stroke-width="1" stroke-linecap="round" stroke-linejoin="round"/>
  <path d="M 16 20 L 30 20" fill="none" stroke="#808080" stroke-width="1" stroke-linecap="round" stroke-linejoin="round"/>
  <path d="M 16 21 L 30 21" fill="none" stroke="#808080" stroke-width="1" stroke-linecap="round" stroke-linejoin="round"/>
  <path d="M 16 22 L 30 22" fill="none" stroke="#808080" stroke-width="1" stroke-linecap="round" stroke-linejoin="round"/>
  <path d="M 2 19 L 14 19" fill="none" stroke="#808080" stroke-width="1" stroke-linecap="round" stroke-linejoin="round"/>
  <path d="M 14 19 L 9 17" fill="none" stroke="#808080" stroke-width="1" stroke-linecap="round" stroke-linejoin="round"/>
  <path d="M 9 17 L 9 21" fill="none" stroke="#808080" stroke-width="1" stroke-linecap="round" stroke-linejoin="round"/>
  <path d="M 9 21 L 14 19" fill="none" stroke="#808080" stroke-width="1" stroke-linecap="round" stroke-linejoin="round"/>
  <path d="M 9 20 L 12 19" fill="none" stroke="#808080" stroke-width="1" stroke-linecap="round" stroke-linejoin="round"/>
  <path d="M 9 18 L 11 18" fill="none" stroke="#808080" stroke-width="1" stroke-linecap="round" stroke-linejoin="round"/>
</svg>