<svg xmlns="http://www.w3.org/2000/svg" viewBox="0 0 32 32" width="32" height="32">
  <path d="M 9 20 L 2 20" fill="none" stroke="#808080" stroke-width="1.9999999999999996" stroke-linecap="round" stroke-linejoin="round"/>
  <path d="M 2 20 L 2 2" fill="none" stroke="#808080" stroke-width="1.9999999999999996" stroke-linecap="round" stroke-linejoin="round"/>
  <path d="M 2 2 L 30 2" fill="none" stroke="#808080" stroke-width="1.9999999999999996" stroke-linecap="round" stroke-linejoin="round"/>
  <path d="M 30 2 L 30 20" fill="none" stroke="#808080" stroke-width="1.9999999999999996" stroke-linecap="round" stroke-linejoin="round"/>
  <path d="M 30 20 L 23 20" fill="none" stroke="#808080" stroke-width="1.9999999999999996" stroke-linecap="round" stroke-linejoin="round"/>
  <path d="M 16 9 L 16 29" fill="none" stroke="#808080" stroke-width="1.9999999999999996" stroke-linecap="round" stroke-linejoin="round"/>
  <path d="M 16 29 L 24 23" fill="none" stroke="#808080" stroke-width="1.9999999999999996" stroke-linecap="round" stroke-linejoin="round"/>
  <path d="M 8 23 L 16 29" fill="none" stroke="#808080" stroke-width="1.9999999999999996" stroke-linecap="round" stroke-linejoin="round"/>
  <path d="M 7 26 L 2 26" fill="none" stroke="#808080" stroke-width="1.9999999999999996" stroke-linecap="round" stroke-linejoin="round"/>
  <path d="M 2 26 Q 1.9375 27.6875 2 30" fill="none" stroke="#808080" stroke-width="1.9999999999999996" stroke-linecap="round" stroke-linejoin="round"/>
  <path d="M 2 30 L 12 30" fill="none" stroke="#808080" stroke-width="1.9999999999999996" stroke-linecap="round" stroke-linejoin="round"/>
  <path d="M 20 30 L 30 30" fill="none" stroke="#808080" stroke-width="1.9999999999999996" stroke-linecap="round" stroke-linejoin="round"/>
  <path d="M 25 26 L 30 26" fill="none" stroke="#808080" stroke-width="1.9999999999999996" stroke-linecap="round" stroke-linejoin="round"/>
  <path d="M 30 26 L 30 29" fill="none" stroke="#808080" stroke-width="1.9999999999999996" stroke-linecap="round" stroke-linejoin="round"/>
  <path d="M 7 26 L 12 30" fill="none" stroke="#808080" stroke-width="1.9999999999999996" stroke-linecap="round" stroke-linejoin="round"/>
  <path d="M 25 26 L 20 30" fill="none" stroke="#808080" stroke-width="1.9999999999999996" stroke-linecap="round" stroke-linejoin="round"/>
  <path d="M 2 27 L 8 27" fill="none" stroke="#808080" stroke-width="1.9999999999999996" stroke-linecap="round" stroke-linejoin="round"/>
  <path d="M 3 29 L 8 29" fill="none" stroke="#808080" stroke-width="1.9999999999999996" stroke-linecap="round" stroke-linejoin="round"/>
  <path d="M 23 29 L 29 29" fill="none" stroke="#808080" stroke-width="1.9999999999999996" stroke-linecap="round" stroke-linejoin="round"/>
  <path d="M 25 28 L 28 28" fill="none" stroke="#808080" stroke-width="1.9999999999999996" stroke-linecap="round" stroke-linejoin="round"/>
</svg>